<svg width="149" height="149" viewBox="0 0 149 149" fill="none" xmlns="http://www.w3.org/2000/svg">
<path fill-rule="evenodd" clip-rule="evenodd" d="M6.20833 12.4167C2.77957 12.4167 0 15.1963 0 18.625V99.3333C0 102.762 2.77957 105.542 6.20833 105.542H14.5077C13.1669 108.364 12.4167 111.522 12.4167 114.854C12.4167 126.855 22.1451 136.583 34.1458 136.583C46.1465 136.583 55.875 126.855 55.875 114.854C55.875 111.522 55.1248 108.364 53.7839 105.542H95.2161C93.8753 108.364 93.125 111.522 93.125 114.854C93.125 126.855 102.853 136.583 114.854 136.583C126.855 136.583 136.583 126.855 136.583 114.854C136.583 111.522 135.833 108.364 134.492 105.542H142.792C146.22 105.542 149 102.762 149 99.3333V68.2917C149 66.6451 148.346 65.066 147.182 63.9017L128.557 45.2767C127.392 44.1124 125.813 43.4584 124.167 43.4584H105.542V18.625C105.542 15.1963 102.762 12.4167 99.3333 12.4167H6.20833ZM136.583 93.125V70.8633L121.595 55.875H105.542V93.125H136.583ZM114.854 105.542C109.711 105.542 105.542 109.711 105.542 114.854C105.542 119.997 109.711 124.167 114.854 124.167C119.997 124.167 124.167 119.997 124.167 114.854C124.167 109.711 119.997 105.542 114.854 105.542ZM24.8333 114.854C24.8333 109.711 29.0027 105.542 34.1458 105.542C39.289 105.542 43.4583 109.711 43.4583 114.854C43.4583 119.997 39.289 124.167 34.1458 124.167C29.0027 124.167 24.8333 119.997 24.8333 114.854ZM93.125 93.125H12.4167V24.8334H93.125V93.125Z" fill="white"/>
</svg>
