<svg width="149" height="149" viewBox="0 0 149 149" fill="none" xmlns="http://www.w3.org/2000/svg">
<path fill-rule="evenodd" clip-rule="evenodd" d="M74.5 12.4167C57.3562 12.4167 43.4583 26.3145 43.4583 43.4584C43.4583 60.6022 57.3562 74.5 74.5 74.5C91.6438 74.5 105.542 60.6022 105.542 43.4584C105.542 26.3145 91.6438 12.4167 74.5 12.4167ZM55.875 43.4584C55.875 33.172 64.2137 24.8334 74.5 24.8334C84.7863 24.8334 93.125 33.172 93.125 43.4584C93.125 53.7447 84.7863 62.0834 74.5 62.0834C64.2137 62.0834 55.875 53.7447 55.875 43.4584Z" fill="#919190"/>
<path d="M49.6667 86.9167C41.4339 86.9167 33.5383 90.1871 27.7169 96.0086C21.8955 101.83 18.625 109.726 18.625 117.958V130.375C18.625 133.804 21.4046 136.583 24.8333 136.583C28.2621 136.583 31.0417 133.804 31.0417 130.375V117.958C31.0417 113.019 33.0039 108.281 36.4968 104.788C39.9897 101.296 44.727 99.3333 49.6667 99.3333H99.3333C104.273 99.3333 109.01 101.296 112.503 104.788C115.996 108.281 117.958 113.019 117.958 117.958V130.375C117.958 133.804 120.738 136.583 124.167 136.583C127.595 136.583 130.375 133.804 130.375 130.375V117.958C130.375 109.726 127.105 101.83 121.283 96.0086C115.462 90.1871 107.566 86.9167 99.3333 86.9167H49.6667Z" fill="#919190"/>
</svg>
