<svg width="148" height="148" viewBox="0 0 148 148" fill="none" xmlns="http://www.w3.org/2000/svg">
<path fill-rule="evenodd" clip-rule="evenodd" d="M30.8333 24.6666C29.1978 24.6666 27.6293 25.3163 26.4728 26.4728C25.3164 27.6293 24.6667 29.1978 24.6667 30.8333V117.167C24.6667 118.802 25.3164 120.371 26.4728 121.527C27.6293 122.684 29.1978 123.333 30.8333 123.333H55.5C58.9058 123.333 61.6667 126.094 61.6667 129.5C61.6667 132.906 58.9058 135.667 55.5 135.667H30.8333C25.9268 135.667 21.2213 133.718 17.7519 130.248C14.2824 126.779 12.3333 122.073 12.3333 117.167V30.8333C12.3333 25.9268 14.2824 21.2213 17.7519 17.7518C21.2213 14.2824 25.9268 12.3333 30.8333 12.3333H55.5C58.9058 12.3333 61.6667 15.0942 61.6667 18.5C61.6667 21.9057 58.9058 24.6666 55.5 24.6666H30.8333ZM94.3062 38.8062C96.7144 36.3979 100.619 36.3979 103.027 38.8062L133.861 69.6395C136.269 72.0477 136.269 75.9522 133.861 78.3605L103.027 109.194C100.619 111.602 96.7144 111.602 94.3062 109.194C91.8979 106.786 91.8979 102.881 94.3062 100.473L114.612 80.1666H55.5C52.0942 80.1666 49.3333 77.4057 49.3333 74C49.3333 70.5942 52.0942 67.8333 55.5 67.8333H114.612L94.3062 47.5271C91.8979 45.1189 91.8979 41.2144 94.3062 38.8062Z" fill="#919190"/>
</svg>
