<svg width="146" height="146" viewBox="0 0 146 146" fill="none" xmlns="http://www.w3.org/2000/svg">
<path d="M60.8333 60.8334C64.1931 60.8334 66.9167 63.557 66.9167 66.9167V103.417C66.9167 106.776 64.1931 109.5 60.8333 109.5C57.4736 109.5 54.75 106.776 54.75 103.417V66.9167C54.75 63.557 57.4736 60.8334 60.8333 60.8334Z" fill="white"/>
<path d="M91.25 103.417V66.9167C91.25 63.557 88.5264 60.8334 85.1667 60.8334C81.8069 60.8334 79.0833 63.557 79.0833 66.9167V103.417C79.0833 106.776 81.8069 109.5 85.1667 109.5C88.5264 109.5 91.25 106.776 91.25 103.417Z" fill="white"/>
<path fill-rule="evenodd" clip-rule="evenodd" d="M42.5833 30.4167V24.3334C42.5833 19.4932 44.5061 14.8512 47.9286 11.4287C51.3512 8.00614 55.9931 6.08337 60.8333 6.08337H85.1667C90.0069 6.08337 94.6488 8.00614 98.0714 11.4287C101.494 14.8512 103.417 19.4932 103.417 24.3334V30.4167H127.75C131.11 30.4167 133.833 33.1403 133.833 36.5C133.833 39.8598 131.11 42.5834 127.75 42.5834H121.667V121.667C121.667 126.507 119.744 131.149 116.321 134.571C112.899 137.994 108.257 139.917 103.417 139.917H42.5833C37.7431 139.917 33.1012 137.994 29.6786 134.571C26.2561 131.149 24.3333 126.507 24.3333 121.667V42.5834H18.25C14.8903 42.5834 12.1667 39.8598 12.1667 36.5C12.1667 33.1403 14.8903 30.4167 18.25 30.4167H42.5833ZM56.5318 20.0318C57.6726 18.891 59.2199 18.25 60.8333 18.25H85.1667C86.7801 18.25 88.3274 18.891 89.4682 20.0318C90.6091 21.1727 91.25 22.72 91.25 24.3334V30.4167H54.75V24.3334C54.75 22.72 55.3909 21.1727 56.5318 20.0318ZM36.5 42.5834V121.667C36.5 123.28 37.1409 124.827 38.2818 125.968C39.4226 127.109 40.9699 127.75 42.5833 127.75H103.417C105.03 127.75 106.577 127.109 107.718 125.968C108.859 124.827 109.5 123.28 109.5 121.667V42.5834H36.5Z" fill="white"/>
</svg>
