<svg width="117" height="117" viewBox="0 0 117 117" fill="none" xmlns="http://www.w3.org/2000/svg">
<path d="M51.1387 10.8712L26.8125 20.0362C21.2062 22.1325 16.6237 28.7625 16.6237 34.71V70.9312C16.6237 76.6837 20.4262 84.24 25.0575 87.7012L46.02 103.35C52.8937 108.517 64.2037 108.517 71.0775 103.35L92.04 87.7012C96.6712 84.24 100.474 76.6837 100.474 70.9312V34.71C100.474 28.7137 95.8913 22.0837 90.285 19.9875L65.9587 10.8712C61.815 9.35998 55.185 9.35998 51.1387 10.8712Z" stroke="white" stroke-width="6" stroke-linecap="round" stroke-linejoin="round"/>
<path d="M58.5 60.9375C63.8848 60.9375 68.25 56.5723 68.25 51.1875C68.25 45.8027 63.8848 41.4375 58.5 41.4375C53.1152 41.4375 48.75 45.8027 48.75 51.1875C48.75 56.5723 53.1152 60.9375 58.5 60.9375Z" stroke="white" stroke-width="6" stroke-miterlimit="10" stroke-linecap="round" stroke-linejoin="round"/>
<path d="M58.5 60.9375V75.5625" stroke="white" stroke-width="6" stroke-miterlimit="10" stroke-linecap="round" stroke-linejoin="round"/>
</svg>
