<svg width="117" height="117" viewBox="0 0 117 117" fill="none" xmlns="http://www.w3.org/2000/svg">
<path d="M82.875 107.25H34.125C14.625 107.25 9.75 102.375 9.75 82.875V73.125C9.75 53.625 14.625 48.75 34.125 48.75H82.875C102.375 48.75 107.25 53.625 107.25 73.125V82.875C107.25 102.375 102.375 107.25 82.875 107.25Z" stroke="white" stroke-width="6" stroke-linecap="round" stroke-linejoin="round"/>
<path d="M29.25 48.75V39C29.25 22.8638 34.125 9.75 58.5 9.75C80.4375 9.75 87.75 19.5 87.75 34.125" stroke="white" stroke-width="6" stroke-linecap="round" stroke-linejoin="round"/>
<path d="M58.5 90.1875C65.231 90.1875 70.6875 84.731 70.6875 78C70.6875 71.269 65.231 65.8125 58.5 65.8125C51.769 65.8125 46.3125 71.269 46.3125 78C46.3125 84.731 51.769 90.1875 58.5 90.1875Z" stroke="white" stroke-width="6" stroke-linecap="round" stroke-linejoin="round"/>
</svg>
